<svg width="95" height="106" viewBox="0 0 95 106" fill="none" xmlns="http://www.w3.org/2000/svg">
<path fill-rule="evenodd" clip-rule="evenodd" d="M62.8528 0.539214C61.5697 0.788717 59.5737 1.35901 58.3974 1.78673C57.2212 2.21445 54.7262 3.31939 52.8727 4.24612C51.0193 5.17284 47.8114 7.06194 45.7441 8.45203C43.6767 9.84211 40.4688 12.3015 38.6154 13.9767C36.7619 15.6163 34.1956 18.147 32.9125 19.6084C31.6293 21.0341 29.3481 23.9212 27.7798 25.9885C26.2472 28.0558 23.8947 31.5845 22.5759 33.8301C21.2215 36.0756 19.2254 39.8538 18.0848 42.2062C16.9799 44.5587 15.3403 48.3369 14.4849 50.5824C13.5938 52.8279 12.4889 56.2853 11.9898 58.2457C11.3126 61.0259 11.0631 63.0576 10.9205 67.513C10.778 71.2555 10.8849 74.1426 11.17 75.8891C11.4196 77.3505 11.9898 79.596 12.4176 80.8792C12.8453 82.1624 13.6651 84.0871 14.1997 85.1564C14.7344 86.2257 15.875 88.0079 16.6948 89.0772C17.5146 90.1465 18.9759 91.6791 19.9383 92.4633C20.9007 93.2474 22.8967 94.5662 24.3581 95.386C25.8194 96.2415 29.4551 97.8811 32.3778 99.0216C35.3362 100.198 39.649 101.731 42.0015 102.443C44.354 103.156 48.2034 104.047 50.5559 104.475C54.0846 105.081 55.8311 105.152 60.536 105.01C64.7063 104.867 67.0231 104.653 69.0904 104.083C70.6587 103.691 73.2963 102.657 74.9359 101.837C76.8607 100.875 78.6785 99.5919 79.9616 98.3444C81.0666 97.2395 82.421 95.4573 82.9913 94.2454C83.8824 92.4276 84.0606 91.6078 84.1675 88.7207C84.2745 86.0118 84.1319 84.6574 83.419 81.9485C82.9557 80.0951 81.8864 76.9941 81.0666 75.105C80.2824 73.1803 78.7854 70.1149 77.7517 68.3328C76.7181 66.515 74.6864 63.414 73.1894 61.4536C71.728 59.4932 69.233 56.6061 67.6647 55.0022C66.0964 53.4339 63.4944 51.1171 61.8905 49.8339C60.3222 48.5864 58.7539 47.5527 58.4331 47.5527C58.1123 47.5527 57.8628 47.624 57.8628 47.7309C57.8628 47.8379 58.8608 48.8715 60.037 50.0478C61.2489 51.224 63.1023 53.22 64.136 54.5032C65.1697 55.7863 66.0607 56.9626 66.0607 57.1764C66.0607 57.3903 64.4211 55.7863 62.3895 53.6121C60.3578 51.4378 57.8271 49.0141 56.7578 48.1943C55.6885 47.3745 53.8707 46.127 52.6945 45.4141C51.5183 44.7369 49.2727 43.7389 47.7044 43.2042C45.4589 42.4914 44.1045 42.2775 41.2886 42.2775C38.9362 42.2419 37.0471 42.4557 35.7639 42.8478C34.6946 43.1686 33.055 43.9171 32.1283 44.523L30.4174 45.5923C29.8471 43.8102 29.7046 42.7052 29.7046 42.028C29.7046 41.3508 30.0254 39.7468 30.3818 38.4637C30.7739 37.1805 31.8788 34.935 32.8768 33.4736C33.8392 32.0122 35.7283 29.6241 37.0471 28.1628C38.4015 26.737 40.7896 24.5628 42.3579 23.3866C43.9262 22.2103 46.5995 20.5707 48.346 19.7153C50.0569 18.8599 52.8371 17.7193 54.5836 17.1846C57.3994 16.3292 58.2192 16.2223 63.5657 16.2223C68.128 16.1866 70.0884 16.3292 72.2983 16.8638C73.8666 17.2203 76.4329 17.9688 78.0012 18.5391C79.5695 19.1094 81.6369 20.1787 82.5992 20.9272C83.5972 21.64 84.8804 22.9232 85.4507 23.743C86.0566 24.5628 86.9121 25.846 87.3754 26.5945C87.8031 27.343 88.6586 28.2341 89.2289 28.5905C89.8348 28.9113 90.7259 29.1964 91.2249 29.1964C91.7596 29.1964 92.5437 28.7687 93.1853 28.1271C94.0051 27.2717 94.2189 26.737 94.2189 25.5608C94.2189 24.5272 93.8625 23.4222 93.1853 22.246C92.6506 21.2836 91.1536 19.5371 89.9061 18.3965C88.6586 17.2559 86.4131 15.7233 84.9517 14.9747C83.4903 14.1906 81.2448 13.2639 79.9616 12.8718C78.6785 12.4797 76.1121 11.9807 74.2587 11.7312C72.0844 11.4104 69.4468 11.3391 66.9518 11.4817C64.7776 11.6243 61.6766 12.052 60.0014 12.4084C58.3261 12.8005 55.7598 13.549 54.2984 14.048C52.8371 14.5827 50.5915 15.545 49.3084 16.1866C48.0252 16.8282 45.5302 18.3252 43.7837 19.5014C42.0371 20.6777 39.2213 22.8876 37.5817 24.4559C35.9421 25.9885 33.4471 28.7687 32.057 30.6222C30.6313 32.4756 28.7778 35.2914 27.9224 36.8597C26.568 39.2478 26.2828 39.5686 26.2115 38.8201C26.1402 38.3211 26.6036 36.3964 27.2095 34.5429C27.8155 32.6895 28.9561 29.9449 29.7402 28.4836C30.5244 27.0222 32.0214 24.7054 33.0907 23.3153C34.1243 21.9608 36.156 19.7153 37.5817 18.3609C39.0431 16.9708 41.5738 14.9747 43.249 13.9055C44.9243 12.8362 47.5975 11.3391 49.2371 10.5906C50.841 9.84211 53.7282 8.77282 55.6172 8.20252C57.542 7.66787 60.2152 6.99065 61.6053 6.77679C62.9954 6.52729 65.9538 6.2065 68.1993 6.02828C71.3716 5.77878 72.4409 5.56492 72.9399 5.06591C73.2963 4.70948 73.5815 3.96097 73.5815 3.35503C73.5815 2.71345 73.2607 2.00059 72.7617 1.53723C72.2983 1.10951 71.5854 0.574857 71.1221 0.360997C70.6944 0.147138 69.1617 -0.031079 67.736 0.00456432C66.3459 0.00456432 64.136 0.254067 62.8528 0.539214ZM9.38788 49.4062C8.14037 50.9388 6.53642 53.22 5.78791 54.5032C5.0394 55.7863 4.00574 57.9249 3.47109 59.315C2.93644 60.7051 2.22358 62.915 1.86715 64.3051C1.51071 65.6952 1.04735 68.4753 0.83349 70.5426C0.583987 73.109 0.583987 75.3901 0.83349 77.8495C1.04735 79.8099 1.51071 82.6257 1.90279 84.0871C2.25922 85.5485 3.00773 87.794 3.54238 89.0772C4.11267 90.3603 4.89683 91.9999 5.36019 92.7484C5.82355 93.4613 6.78592 94.7445 7.49879 95.5286C8.2473 96.3484 9.8156 97.7028 10.9918 98.5226C12.1681 99.3781 14.0928 100.519 15.269 101.125C16.4453 101.695 18.9759 102.693 20.865 103.299C22.7898 103.905 25.2492 104.511 26.3541 104.689C27.7798 104.867 28.4214 104.831 28.7422 104.475C29.0273 104.166 29.0511 103.917 28.8135 103.727C28.5996 103.548 26.9957 102.657 25.2492 101.731C23.467 100.804 20.865 99.2355 19.4037 98.2019C17.9423 97.2038 15.8393 95.493 14.77 94.4237C13.6651 93.3544 12.0968 91.5009 11.3126 90.3247C10.4928 89.1485 9.53046 87.5445 9.13838 86.7604C8.71066 85.9762 8.06908 84.301 7.677 83.0178C7.28493 81.7346 6.75028 79.2753 6.53642 77.4931C6.21563 75.0337 6.17999 73.3941 6.50077 70.3644C6.75028 68.2258 7.24928 64.911 7.677 63.0576C8.06908 61.2041 8.96016 58.0675 9.63739 56.1071C10.3146 54.1467 11.3839 51.5804 11.9542 50.4042C12.5245 49.228 12.9522 47.9448 12.8809 47.5527C12.8096 47.1606 12.5245 46.8042 12.1681 46.7329C11.8116 46.6616 10.8136 47.5884 9.38788 49.4062ZM37.1183 52.9C36.1559 53.1851 34.8728 53.9693 34.2312 54.6108C33.4827 55.3237 32.9124 56.393 32.6272 57.5336C32.3421 58.5672 32.2708 59.9217 32.4134 60.7415C32.5203 61.5256 32.9837 62.8801 33.3758 63.7712C33.8035 64.6622 35.0153 66.2662 36.1203 67.3711C37.3678 68.6543 39.0787 69.8662 40.9321 70.7929C42.5004 71.577 44.9955 72.682 46.4568 73.181C47.9182 73.7156 51.7677 74.9632 55.0112 75.9612C59.0389 77.2087 61.5696 77.779 62.9597 77.8146C64.8131 77.8503 65.1339 77.7433 65.9181 76.8879C66.4171 76.282 66.7735 75.4265 66.7735 74.8206C66.7735 74.2503 66.524 73.1454 66.2032 72.4325C65.9181 71.684 64.9557 70.1157 64.1359 68.9394C63.2805 67.7632 60.5359 64.6979 58.0053 62.0959C55.1895 59.2088 52.4449 56.8207 50.9123 55.8227C49.5222 54.9673 47.4549 53.898 46.2786 53.4346C45.0311 52.9712 43.0351 52.5792 41.4668 52.5079C39.7203 52.401 38.2232 52.5435 37.0827 52.9H37.1183Z" fill="#181D27"/>
</svg>
